# xmcd
# Track frame offsets:
# 150
# 17310
# 35363
# 54206
# 71141
# 86108
# 104755
# 124006
# 140736
# 156772
# 173178
# 188647
# 202363
#
# Disc length: 2899 seconds
# Revision: 0
# Processed by: cddbd v1.5.2PL0 Copyright (c) Steve Scherf et al.
# Submitted via: VisiTrax 2.10.3.257 - For more info visit www.synapsa.com
#
DISCID=b80b510d
DTITLE=Trisha Yearwood - Heaven, Heartache and the Power of Love
DYEAR=2007
DGENRE=
TTITLE0=Heaven, heartache and the power of love
TTITLE1=This is me you're talking to
TTITLE2=They call it falling for a reason
TTITLE3=Nothin' 'bout Memphis
TTITLE4=We tried
TTITLE5=Let the wind chase you
TTITLE6=The dreaming fields
TTITLE7=Cowboys are my weakness
TTITLE8=Help me
TTITLE9=Not a bad thing
TTITLE10=Nothin' about you is good for me
TTITLE11=Drown me
TTITLE12=Sing you back to me
EXTD=
EXTT0=
EXTT1=
EXTT2=
EXTT3=
EXTT4=
EXTT5=
EXTT6=
EXTT7=
EXTT8=
EXTT9=
EXTT10=
EXTT11=
EXTT12=
PLAYORDER=
